{
    "asset" : {
        "generator" : "Khronos glTF Blender I/O v3.2.43",
        "version" : "2.0"
    },
    "extensionsUsed" : [
        "KHR_materials_transmission"
    ],
    "scene" : 0,
    "scenes" : [
        {
            "name" : "Scene",
            "nodes" : [
                0
            ]
        }
    ],
    "nodes" : [
        {
            "mesh" : 0,
            "name" : "Cube.011",
            "translation" : [
                68.75569152832031,
                0.2694874703884125,
                8.34067153930664
            ]
        }
    ],
    "materials" : [
        {
            "doubleSided" : true,
            "name" : "handelblack",
            "pbrMetallicRoughness" : {
                "baseColorFactor" : [
                    0,
                    0,
                    0,
                    1
                ],
                "metallicFactor" : 0
            }
        },
        {
            "doubleSided" : true,
            "name" : "Metal grey",
            "pbrMetallicRoughness" : {
                "baseColorFactor" : [
                    0.16558986902236938,
                    0.186397984623909,
                    0.20375487208366394,
                    1
                ],
                "roughnessFactor" : 0.5
            }
        },
        {
            "doubleSided" : true,
            "name" : "Garbage",
            "pbrMetallicRoughness" : {
                "baseColorFactor" : [
                    0.900170624256134,
                    0.900170624256134,
                    0.900170624256134,
                    1
                ],
                "metallicFactor" : 0,
                "roughnessFactor" : 0.7436363697052002
            }
        },
        {
            "doubleSided" : true,
            "extensions" : {
                "KHR_materials_transmission" : {
                    "transmissionFactor" : 0.1963636428117752
                }
            },
            "name" : "Screen black",
            "pbrMetallicRoughness" : {
                "baseColorFactor" : [
                    0,
                    0.013946868479251862,
                    0.04063042253255844,
                    1
                ],
                "metallicFactor" : 0,
                "roughnessFactor" : 0.11636363714933395
            }
        },
        {
            "doubleSided" : true,
            "name" : "Material",
            "pbrMetallicRoughness" : {
                "baseColorTexture" : {
                    "index" : 0
                },
                "metallicFactor" : 0,
                "roughnessFactor" : 0.5
            }
        }
    ],
    "meshes" : [
        {
            "name" : "Cube.055",
            "primitives" : [
                {
                    "attributes" : {
                        "POSITION" : 0,
                        "NORMAL" : 1,
                        "TEXCOORD_0" : 2
                    },
                    "indices" : 3,
                    "material" : 0
                },
                {
                    "attributes" : {
                        "POSITION" : 4,
                        "NORMAL" : 5,
                        "TEXCOORD_0" : 6
                    },
                    "indices" : 7,
                    "material" : 1
                },
                {
                    "attributes" : {
                        "POSITION" : 8,
                        "NORMAL" : 9,
                        "TEXCOORD_0" : 10
                    },
                    "indices" : 11,
                    "material" : 2
                },
                {
                    "attributes" : {
                        "POSITION" : 12,
                        "NORMAL" : 13,
                        "TEXCOORD_0" : 14
                    },
                    "indices" : 15,
                    "material" : 3
                },
                {
                    "attributes" : {
                        "POSITION" : 16,
                        "NORMAL" : 17,
                        "TEXCOORD_0" : 18
                    },
                    "indices" : 19,
                    "material" : 4
                }
            ]
        }
    ],
    "textures" : [
        {
            "sampler" : 0,
            "source" : 0
        }
    ],
    "images" : [
        {
            "bufferView" : 20,
            "mimeType" : "image/png",
            "name" : "Untitled design (1)"
        }
    ],
    "accessors" : [
        {
            "bufferView" : 0,
            "componentType" : 5126,
            "count" : 5016,
            "max" : [
                0.8229721784591675,
                0.901028037071228,
                0.5224131345748901
            ],
            "min" : [
                -0.872856616973877,
                -0.08843296766281128,
                -0.6917822957038879
            ],
            "type" : "VEC3"
        },
        {
            "bufferView" : 1,
            "componentType" : 5126,
            "count" : 5016,
            "type" : "VEC3"
        },
        {
            "bufferView" : 2,
            "componentType" : 5126,
            "count" : 5016,
            "type" : "VEC2"
        },
        {
            "bufferView" : 3,
            "componentType" : 5123,
            "count" : 6516,
            "type" : "SCALAR"
        },
        {
            "bufferView" : 4,
            "componentType" : 5126,
            "count" : 738,
            "max" : [
                0.8155930042266846,
                0.061616450548172,
                0.526562511920929
            ],
            "min" : [
                -0.8651585578918457,
                -0.043852776288986206,
                -0.5432566404342651
            ],
            "type" : "VEC3"
        },
        {
            "bufferView" : 5,
            "componentType" : 5126,
            "count" : 738,
            "type" : "VEC3"
        },
        {
            "bufferView" : 6,
            "componentType" : 5126,
            "count" : 738,
            "type" : "VEC2"
        },
        {
            "bufferView" : 7,
            "componentType" : 5123,
            "count" : 870,
            "type" : "SCALAR"
        },
        {
            "bufferView" : 8,
            "componentType" : 5126,
            "count" : 1236,
            "max" : [
                0.9522570371627808,
                1.6866332292556763,
                0.5817322134971619
            ],
            "min" : [
                -1.0233843326568604,
                0.05566541105508804,
                -0.5911710858345032
            ],
            "type" : "VEC3"
        },
        {
            "bufferView" : 9,
            "componentType" : 5126,
            "count" : 1236,
            "type" : "VEC3"
        },
        {
            "bufferView" : 10,
            "componentType" : 5126,
            "count" : 1236,
            "type" : "VEC2"
        },
        {
            "bufferView" : 11,
            "componentType" : 5123,
            "count" : 1770,
            "type" : "SCALAR"
        },
        {
            "bufferView" : 12,
            "componentType" : 5126,
            "count" : 4,
            "max" : [
                -0.5788459181785583,
                1.5203914642333984,
                -0.16014394164085388
            ],
            "min" : [
                -0.8522769808769226,
                1.2315996885299683,
                -0.44803303480148315
            ],
            "type" : "VEC3"
        },
        {
            "bufferView" : 13,
            "componentType" : 5126,
            "count" : 4,
            "type" : "VEC3"
        },
        {
            "bufferView" : 14,
            "componentType" : 5126,
            "count" : 4,
            "type" : "VEC2"
        },
        {
            "bufferView" : 15,
            "componentType" : 5123,
            "count" : 6,
            "type" : "SCALAR"
        },
        {
            "bufferView" : 16,
            "componentType" : 5126,
            "count" : 12,
            "max" : [
                0.9510900378227234,
                1.1379789113998413,
                0.4515998363494873
            ],
            "min" : [
                -1.0216796398162842,
                0.25097551941871643,
                -0.4621480107307434
            ],
            "type" : "VEC3"
        },
        {
            "bufferView" : 17,
            "componentType" : 5126,
            "count" : 12,
            "type" : "VEC3"
        },
        {
            "bufferView" : 18,
            "componentType" : 5126,
            "count" : 12,
            "type" : "VEC2"
        },
        {
            "bufferView" : 19,
            "componentType" : 5123,
            "count" : 18,
            "type" : "SCALAR"
        }
    ],
    "bufferViews" : [
        {
            "buffer" : 0,
            "byteLength" : 60192,
            "byteOffset" : 0
        },
        {
            "buffer" : 0,
            "byteLength" : 60192,
            "byteOffset" : 60192
        },
        {
            "buffer" : 0,
            "byteLength" : 40128,
            "byteOffset" : 120384
        },
        {
            "buffer" : 0,
            "byteLength" : 13032,
            "byteOffset" : 160512
        },
        {
            "buffer" : 0,
            "byteLength" : 8856,
            "byteOffset" : 173544
        },
        {
            "buffer" : 0,
            "byteLength" : 8856,
            "byteOffset" : 182400
        },
        {
            "buffer" : 0,
            "byteLength" : 5904,
            "byteOffset" : 191256
        },
        {
            "buffer" : 0,
            "byteLength" : 1740,
            "byteOffset" : 197160
        },
        {
            "buffer" : 0,
            "byteLength" : 14832,
            "byteOffset" : 198900
        },
        {
            "buffer" : 0,
            "byteLength" : 14832,
            "byteOffset" : 213732
        },
        {
            "buffer" : 0,
            "byteLength" : 9888,
            "byteOffset" : 228564
        },
        {
            "buffer" : 0,
            "byteLength" : 3540,
            "byteOffset" : 238452
        },
        {
            "buffer" : 0,
            "byteLength" : 48,
            "byteOffset" : 241992
        },
        {
            "buffer" : 0,
            "byteLength" : 48,
            "byteOffset" : 242040
        },
        {
            "buffer" : 0,
            "byteLength" : 32,
            "byteOffset" : 242088
        },
        {
            "buffer" : 0,
            "byteLength" : 12,
            "byteOffset" : 242120
        },
        {
            "buffer" : 0,
            "byteLength" : 144,
            "byteOffset" : 242132
        },
        {
            "buffer" : 0,
            "byteLength" : 144,
            "byteOffset" : 242276
        },
        {
            "buffer" : 0,
            "byteLength" : 96,
            "byteOffset" : 242420
        },
        {
            "buffer" : 0,
            "byteLength" : 36,
            "byteOffset" : 242516
        },
        {
            "buffer" : 0,
            "byteLength" : 16797,
            "byteOffset" : 242552
        }
    ],
    "samplers" : [
        {
            "magFilter" : 9729,
            "minFilter" : 9987
        }
    ],
    "buffers" : [
        {
            "byteLength" : 259352,
            "uri" : "data:application/octet-stream;base64,"
        }
    ]
}
