{
    "asset" : {
        "generator" : "Khronos glTF Blender I/O v3.2.43",
        "version" : "2.0"
    },
    "scene" : 0,
    "scenes" : [
        {
            "name" : "Scene",
            "nodes" : [
                0
            ]
        }
    ],
    "nodes" : [
        {
            "mesh" : 0,
            "name" : "Cube.006",
            "translation" : [
                70.9581527709961,
                0.2694874405860901,
                7.812396049499512
            ]
        }
    ],
    "materials" : [
        {
            "doubleSided" : true,
            "name" : "handelblack",
            "pbrMetallicRoughness" : {
                "baseColorFactor" : [
                    0,
                    0,
                    0,
                    1
                ],
                "metallicFactor" : 0
            }
        },
        {
            "doubleSided" : true,
            "name" : "Metal grey",
            "pbrMetallicRoughness" : {
                "baseColorFactor" : [
                    0.16558986902236938,
                    0.186397984623909,
                    0.20375487208366394,
                    1
                ],
                "roughnessFactor" : 0.5
            }
        },
        {
            "doubleSided" : true,
            "name" : "Garbage",
            "pbrMetallicRoughness" : {
                "baseColorFactor" : [
                    0.900170624256134,
                    0.900170624256134,
                    0.900170624256134,
                    1
                ],
                "metallicFactor" : 0,
                "roughnessFactor" : 0.7436363697052002
            }
        },
        {
            "doubleSided" : true,
            "name" : "Material",
            "pbrMetallicRoughness" : {
                "baseColorTexture" : {
                    "index" : 0
                },
                "metallicFactor" : 0,
                "roughnessFactor" : 0.5
            }
        },
        {
            "doubleSided" : true,
            "name" : "clima",
            "pbrMetallicRoughness" : {
                "roughnessFactor" : 0.8582088947296143
            }
        }
    ],
    "meshes" : [
        {
            "name" : "Cube.054",
            "primitives" : [
                {
                    "attributes" : {
                        "POSITION" : 0,
                        "NORMAL" : 1,
                        "TEXCOORD_0" : 2
                    },
                    "indices" : 3,
                    "material" : 0
                },
                {
                    "attributes" : {
                        "POSITION" : 4,
                        "NORMAL" : 5,
                        "TEXCOORD_0" : 6
                    },
                    "indices" : 7,
                    "material" : 1
                },
                {
                    "attributes" : {
                        "POSITION" : 8,
                        "NORMAL" : 9,
                        "TEXCOORD_0" : 10
                    },
                    "indices" : 11,
                    "material" : 2
                },
                {
                    "attributes" : {
                        "POSITION" : 12,
                        "NORMAL" : 13,
                        "TEXCOORD_0" : 14
                    },
                    "indices" : 15,
                    "material" : 3
                },
                {
                    "attributes" : {
                        "POSITION" : 16,
                        "NORMAL" : 17,
                        "TEXCOORD_0" : 18
                    },
                    "indices" : 19,
                    "material" : 4
                }
            ]
        }
    ],
    "textures" : [
        {
            "sampler" : 0,
            "source" : 0
        }
    ],
    "images" : [
        {
            "bufferView" : 16,
            "mimeType" : "image/png",
            "name" : "Untitled design (1)"
        }
    ],
    "accessors" : [
        {
            "bufferView" : 0,
            "componentType" : 5126,
            "count" : 3088,
            "max" : [
                0.8229721784591675,
                1.2607980966567993,
                0.5656625032424927
            ],
            "min" : [
                -0.872856616973877,
                -0.08843296766281128,
                -0.5833990573883057
            ],
            "type" : "VEC3"
        },
        {
            "bufferView" : 1,
            "componentType" : 5126,
            "count" : 3088,
            "type" : "VEC3"
        },
        {
            "bufferView" : 2,
            "componentType" : 5126,
            "count" : 3088,
            "type" : "VEC2"
        },
        {
            "bufferView" : 3,
            "componentType" : 5123,
            "count" : 3588,
            "type" : "SCALAR"
        },
        {
            "bufferView" : 4,
            "componentType" : 5126,
            "count" : 738,
            "max" : [
                0.8155930042266846,
                0.061616450548172,
                0.526562511920929
            ],
            "min" : [
                -0.8651585578918457,
                -0.043852776288986206,
                -0.5432566404342651
            ],
            "type" : "VEC3"
        },
        {
            "bufferView" : 5,
            "componentType" : 5126,
            "count" : 738,
            "type" : "VEC3"
        },
        {
            "bufferView" : 6,
            "componentType" : 5126,
            "count" : 738,
            "type" : "VEC2"
        },
        {
            "bufferView" : 7,
            "componentType" : 5123,
            "count" : 870,
            "type" : "SCALAR"
        },
        {
            "bufferView" : 8,
            "componentType" : 5126,
            "count" : 1092,
            "max" : [
                0.9522570371627808,
                1.6866332292556763,
                0.5817322134971619
            ],
            "min" : [
                -1.0233843326568604,
                0.05566541105508804,
                -0.591052770614624
            ],
            "type" : "VEC3"
        },
        {
            "bufferView" : 9,
            "componentType" : 5126,
            "count" : 1092,
            "type" : "VEC3"
        },
        {
            "bufferView" : 10,
            "componentType" : 5126,
            "count" : 1092,
            "type" : "VEC2"
        },
        {
            "bufferView" : 11,
            "componentType" : 5123,
            "count" : 1554,
            "type" : "SCALAR"
        },
        {
            "bufferView" : 12,
            "componentType" : 5126,
            "count" : 8,
            "max" : [
                0.9510900378227234,
                1.1151899099349976,
                0.4515998363494873
            ],
            "min" : [
                -1.0216796398162842,
                0.25097551941871643,
                -0.4126155376434326
            ],
            "type" : "VEC3"
        },
        {
            "bufferView" : 13,
            "componentType" : 5126,
            "count" : 8,
            "type" : "VEC3"
        },
        {
            "bufferView" : 14,
            "componentType" : 5126,
            "count" : 8,
            "type" : "VEC2"
        },
        {
            "bufferView" : 15,
            "componentType" : 5123,
            "count" : 12,
            "type" : "SCALAR"
        },
        {
            "bufferView" : 17,
            "componentType" : 5126,
            "count" : 144,
            "max" : [
                0.8157711625099182,
                1.2607983350753784,
                0.48888635635375977
            ],
            "min" : [
                -0.5886746048927307,
                0.10385660827159882,
                -0.5111136436462402
            ],
            "type" : "VEC3"
        },
        {
            "bufferView" : 18,
            "componentType" : 5126,
            "count" : 144,
            "type" : "VEC3"
        },
        {
            "bufferView" : 19,
            "componentType" : 5126,
            "count" : 144,
            "type" : "VEC2"
        },
        {
            "bufferView" : 20,
            "componentType" : 5123,
            "count" : 216,
            "type" : "SCALAR"
        }
    ],
    "bufferViews" : [
        {
            "buffer" : 0,
            "byteLength" : 37056,
            "byteOffset" : 0
        },
        {
            "buffer" : 0,
            "byteLength" : 37056,
            "byteOffset" : 37056
        },
        {
            "buffer" : 0,
            "byteLength" : 24704,
            "byteOffset" : 74112
        },
        {
            "buffer" : 0,
            "byteLength" : 7176,
            "byteOffset" : 98816
        },
        {
            "buffer" : 0,
            "byteLength" : 8856,
            "byteOffset" : 105992
        },
        {
            "buffer" : 0,
            "byteLength" : 8856,
            "byteOffset" : 114848
        },
        {
            "buffer" : 0,
            "byteLength" : 5904,
            "byteOffset" : 123704
        },
        {
            "buffer" : 0,
            "byteLength" : 1740,
            "byteOffset" : 129608
        },
        {
            "buffer" : 0,
            "byteLength" : 13104,
            "byteOffset" : 131348
        },
        {
            "buffer" : 0,
            "byteLength" : 13104,
            "byteOffset" : 144452
        },
        {
            "buffer" : 0,
            "byteLength" : 8736,
            "byteOffset" : 157556
        },
        {
            "buffer" : 0,
            "byteLength" : 3108,
            "byteOffset" : 166292
        },
        {
            "buffer" : 0,
            "byteLength" : 96,
            "byteOffset" : 169400
        },
        {
            "buffer" : 0,
            "byteLength" : 96,
            "byteOffset" : 169496
        },
        {
            "buffer" : 0,
            "byteLength" : 64,
            "byteOffset" : 169592
        },
        {
            "buffer" : 0,
            "byteLength" : 24,
            "byteOffset" : 169656
        },
        {
            "buffer" : 0,
            "byteLength" : 16797,
            "byteOffset" : 169680
        },
        {
            "buffer" : 0,
            "byteLength" : 1728,
            "byteOffset" : 186480
        },
        {
            "buffer" : 0,
            "byteLength" : 1728,
            "byteOffset" : 188208
        },
        {
            "buffer" : 0,
            "byteLength" : 1152,
            "byteOffset" : 189936
        },
        {
            "buffer" : 0,
            "byteLength" : 432,
            "byteOffset" : 191088
        }
    ],
    "samplers" : [
        {
            "magFilter" : 9729,
            "minFilter" : 9987
        }
    ],
    "buffers" : [
        {
            "byteLength" : 191520,
            "uri" : "data:application/octet-stream;base64,"
        }
    ]
}
