{
    "asset" : {
        "generator" : "Khronos glTF Blender I/O v3.2.43",
        "version" : "2.0"
    },
    "scene" : 0,
    "scenes" : [
        {
            "name" : "Scene",
            "nodes" : [
                0
            ]
        }
    ],
    "nodes" : [
        {
            "mesh" : 0,
            "name" : "Cube.004",
            "rotation" : [
                0,
                0.7071068286895752,
                0,
                0.7071068286895752
            ],
            "scale" : [
                1,
                1,
                0.8999999761581421
            ],
            "translation" : [
                72.60708618164062,
                1.6080121994018555,
                0.5185613632202148
            ]
        }
    ],
    "materials" : [
        {
            "doubleSided" : true,
            "name" : "Garbage",
            "pbrMetallicRoughness" : {
                "metallicFactor" : 0,
                "roughnessFactor" : 0.7436363697052002
            }
        },
        {
            "doubleSided" : true,
            "name" : "Screen black",
            "pbrMetallicRoughness" : {
                "baseColorFactor" : [
                    0,
                    0,
                    0,
                    1
                ],
                "metallicFactor" : 0,
                "roughnessFactor" : 0.8272727131843567
            }
        },
        {
            "doubleSided" : true,
            "name" : "Garbage.Darker",
            "pbrMetallicRoughness" : {
                "baseColorFactor" : [
                    0.44520121812820435,
                    0.44520121812820435,
                    0.44520121812820435,
                    1
                ],
                "metallicFactor" : 0,
                "roughnessFactor" : 0.7436363697052002
            }
        },
        {
            "doubleSided" : true,
            "name" : "handelblack",
            "pbrMetallicRoughness" : {
                "baseColorFactor" : [
                    0,
                    0,
                    0,
                    1
                ],
                "metallicFactor" : 0
            }
        },
        {
            "doubleSided" : true,
            "name" : "Material",
            "pbrMetallicRoughness" : {
                "baseColorTexture" : {
                    "index" : 0
                },
                "metallicFactor" : 0,
                "roughnessFactor" : 0.5
            }
        }
    ],
    "meshes" : [
        {
            "name" : "Cube.004",
            "primitives" : [
                {
                    "attributes" : {
                        "POSITION" : 0,
                        "NORMAL" : 1,
                        "TEXCOORD_0" : 2
                    },
                    "indices" : 3,
                    "material" : 0
                },
                {
                    "attributes" : {
                        "POSITION" : 4,
                        "NORMAL" : 5,
                        "TEXCOORD_0" : 6
                    },
                    "indices" : 7,
                    "material" : 1
                },
                {
                    "attributes" : {
                        "POSITION" : 8,
                        "NORMAL" : 9,
                        "TEXCOORD_0" : 10
                    },
                    "indices" : 11,
                    "material" : 2
                },
                {
                    "attributes" : {
                        "POSITION" : 12,
                        "NORMAL" : 13,
                        "TEXCOORD_0" : 14
                    },
                    "indices" : 15,
                    "material" : 3
                },
                {
                    "attributes" : {
                        "POSITION" : 16,
                        "NORMAL" : 17,
                        "TEXCOORD_0" : 18
                    },
                    "indices" : 11,
                    "material" : 4
                }
            ]
        }
    ],
    "textures" : [
        {
            "sampler" : 0,
            "source" : 0
        }
    ],
    "images" : [
        {
            "bufferView" : 19,
            "mimeType" : "image/png",
            "name" : "Untitled design (1)"
        }
    ],
    "accessors" : [
        {
            "bufferView" : 0,
            "componentType" : 5126,
            "count" : 2452,
            "max" : [
                0.33994024991989136,
                0.34811052680015564,
                1.0975786447525024
            ],
            "min" : [
                -0.8329630494117737,
                -1.2828571796417236,
                -1.097578525543213
            ],
            "type" : "VEC3"
        },
        {
            "bufferView" : 1,
            "componentType" : 5126,
            "count" : 2452,
            "type" : "VEC3"
        },
        {
            "bufferView" : 2,
            "componentType" : 5126,
            "count" : 2452,
            "type" : "VEC2"
        },
        {
            "bufferView" : 3,
            "componentType" : 5123,
            "count" : 3540,
            "type" : "SCALAR"
        },
        {
            "bufferView" : 4,
            "componentType" : 5126,
            "count" : 4,
            "max" : [
                0.19680224359035492,
                0.1818687617778778,
                -0.6036470532417297
            ],
            "min" : [
                -0.09108686447143555,
                -0.1069229245185852,
                -0.9074593186378479
            ],
            "type" : "VEC3"
        },
        {
            "bufferView" : 5,
            "componentType" : 5126,
            "count" : 4,
            "type" : "VEC3"
        },
        {
            "bufferView" : 6,
            "componentType" : 5126,
            "count" : 4,
            "type" : "VEC2"
        },
        {
            "bufferView" : 7,
            "componentType" : 5123,
            "count" : 6,
            "type" : "SCALAR"
        },
        {
            "bufferView" : 8,
            "componentType" : 5126,
            "count" : 8,
            "max" : [
                0.19857807457447052,
                0.1942397654056549,
                0.5967903137207031
            ],
            "min" : [
                -0.10142192244529724,
                -0.10576023906469345,
                -0.08707556128501892
            ],
            "type" : "VEC3"
        },
        {
            "bufferView" : 9,
            "componentType" : 5126,
            "count" : 8,
            "type" : "VEC3"
        },
        {
            "bufferView" : 10,
            "componentType" : 5126,
            "count" : 8,
            "type" : "VEC2"
        },
        {
            "bufferView" : 11,
            "componentType" : 5123,
            "count" : 12,
            "type" : "SCALAR"
        },
        {
            "bufferView" : 12,
            "componentType" : 5126,
            "count" : 8176,
            "max" : [
                0.4405495524406433,
                -0.4374966323375702,
                0.914703905582428
            ],
            "min" : [
                -0.8391398191452026,
                -1.4222404956817627,
                -0.969482958316803
            ],
            "type" : "VEC3"
        },
        {
            "bufferView" : 13,
            "componentType" : 5126,
            "count" : 8176,
            "type" : "VEC3"
        },
        {
            "bufferView" : 14,
            "componentType" : 5126,
            "count" : 8176,
            "type" : "VEC2"
        },
        {
            "bufferView" : 15,
            "componentType" : 5123,
            "count" : 31116,
            "type" : "SCALAR"
        },
        {
            "bufferView" : 16,
            "componentType" : 5126,
            "count" : 8,
            "max" : [
                0.161382794380188,
                -0.22333478927612305,
                1.0962820053100586
            ],
            "min" : [
                -0.7028324604034424,
                -1.0875492095947266,
                -1.0956844091415405
            ],
            "type" : "VEC3"
        },
        {
            "bufferView" : 17,
            "componentType" : 5126,
            "count" : 8,
            "type" : "VEC3"
        },
        {
            "bufferView" : 18,
            "componentType" : 5126,
            "count" : 8,
            "type" : "VEC2"
        }
    ],
    "bufferViews" : [
        {
            "buffer" : 0,
            "byteLength" : 29424,
            "byteOffset" : 0
        },
        {
            "buffer" : 0,
            "byteLength" : 29424,
            "byteOffset" : 29424
        },
        {
            "buffer" : 0,
            "byteLength" : 19616,
            "byteOffset" : 58848
        },
        {
            "buffer" : 0,
            "byteLength" : 7080,
            "byteOffset" : 78464
        },
        {
            "buffer" : 0,
            "byteLength" : 48,
            "byteOffset" : 85544
        },
        {
            "buffer" : 0,
            "byteLength" : 48,
            "byteOffset" : 85592
        },
        {
            "buffer" : 0,
            "byteLength" : 32,
            "byteOffset" : 85640
        },
        {
            "buffer" : 0,
            "byteLength" : 12,
            "byteOffset" : 85672
        },
        {
            "buffer" : 0,
            "byteLength" : 96,
            "byteOffset" : 85684
        },
        {
            "buffer" : 0,
            "byteLength" : 96,
            "byteOffset" : 85780
        },
        {
            "buffer" : 0,
            "byteLength" : 64,
            "byteOffset" : 85876
        },
        {
            "buffer" : 0,
            "byteLength" : 24,
            "byteOffset" : 85940
        },
        {
            "buffer" : 0,
            "byteLength" : 98112,
            "byteOffset" : 85964
        },
        {
            "buffer" : 0,
            "byteLength" : 98112,
            "byteOffset" : 184076
        },
        {
            "buffer" : 0,
            "byteLength" : 65408,
            "byteOffset" : 282188
        },
        {
            "buffer" : 0,
            "byteLength" : 62232,
            "byteOffset" : 347596
        },
        {
            "buffer" : 0,
            "byteLength" : 96,
            "byteOffset" : 409828
        },
        {
            "buffer" : 0,
            "byteLength" : 96,
            "byteOffset" : 409924
        },
        {
            "buffer" : 0,
            "byteLength" : 64,
            "byteOffset" : 410020
        },
        {
            "buffer" : 0,
            "byteLength" : 16797,
            "byteOffset" : 410084
        }
    ],
    "samplers" : [
        {
            "magFilter" : 9729,
            "minFilter" : 9987
        }
    ],
    "buffers" : [
        {
            "byteLength" : 426884,
            "uri" : "data:application/octet-stream;base64,"
        }
    ]
}
