<svg width="329" height="36" viewBox="0 0 329 36" fill="none" xmlns="http://www.w3.org/2000/svg">
<path d="M59.6128 8.41724L70.179 26.9362L65.5129 35.2817L51.0859 8.41724H59.6128Z" fill="url(#paint0_linear_44_12199)"/>
<path d="M79.6759 8.41724L73.508 19.5758L72.7045 12.4963L66.3223 8.41724H79.6759Z" fill="#31F6A9"/>
<path d="M51.086 8.41895L55.6487 16.7628L45.0844 35.1994H36.5557L51.086 8.41895Z" fill="#24B4D5"/>
<path opacity="0.06" d="M51.086 8.41895L50.2954 9.96434L55.6487 16.7628L51.086 8.41895Z" fill="black"/>
<path d="M119.512 10.558V32.8841H113.268L99.5593 18.1524V32.8841H93.3154V11.4202L99.5593 9.98315L113.268 24.7105V10.558H119.512Z" fill="white"/>
<path d="M131.427 28.0153H150.075L148.429 32.8841H125.333V9.98315H150.075L148.429 14.8519H131.427V19.0149H147.273V23.9015H131.427V28.0153Z" fill="white"/>
<path d="M174.439 9.98315H181.753L170.643 21.2774L182.093 32.8841H174.779L166.089 24.005L157.398 32.8841H150.075L161.525 21.2774L150.415 9.98315H157.739L166.089 18.5364L174.439 9.98315Z" fill="white"/>
<path d="M182.093 9.98315H209.745L208.042 14.8519H198.153V32.8841H191.847V14.8519H182.093V9.98315Z" fill="white"/>
<path d="M209.745 9.98315H216.411L221.468 27.0179L228.914 9.98315H232.777L240.223 27.0179L245.28 9.98315H251.951L243.367 32.6395L237.048 34.1564L230.843 19.1532L224.441 32.6395L218.117 34.1564L209.745 9.98315Z" fill="white"/>
<path d="M260.645 25.3462H267.731L262.79 16.0796L253.954 32.8841H247.585L259.632 11.4202L265.676 9.98315L278.148 32.8841H271.778L270.177 29.8925H258.426L260.645 25.3462Z" fill="white"/>
<path d="M289.985 32.8841H283.682V24.9735L270.871 9.98315H278.184L286.875 20.7033L295.565 9.98315H302.889L289.995 25.0941L289.985 32.8841Z" fill="white"/>
<defs>
<linearGradient id="paint0_linear_44_12199" x1="51.0859" y1="21.8495" x2="70.179" y2="21.8495" gradientUnits="userSpaceOnUse">
<stop stop-color="#24B4D5"/>
<stop offset="0.99" stop-color="#31F6A9"/>
</linearGradient>
</defs>
</svg>
