<svg width="215" height="255" viewBox="0 0 215 255" fill="none" xmlns="http://www.w3.org/2000/svg">
<g clip-path="url(#clip0_36_2888)">
<path d="M56.6495 178.719L48.4185 202.045L3.50719 193.707L6.38995 183.619L33.2093 169.593L56.6495 178.719Z" fill="#67DFB0"/>
<path d="M3.5074 193.707L48.4187 202.045L50.8132 195.251L5.66345 186.165L3.5074 193.707Z" fill="#E9E5F6"/>
<path d="M47.8038 188.166C46.9356 188.989 45.8426 189.536 44.663 189.739C43.4834 189.942 42.2701 189.79 41.1765 189.304C40.0829 188.818 39.158 188.019 38.5186 187.008C37.8793 185.997 37.5542 184.819 37.5845 183.624C37.6149 182.428 37.9991 181.268 38.6889 180.291C39.3786 179.314 40.3428 178.563 41.4597 178.133C42.5765 177.703 43.7959 177.613 44.9637 177.876C46.1315 178.138 47.1953 178.74 48.0208 179.606C48.5697 180.182 48.9996 180.861 49.2858 181.603C49.5721 182.345 49.709 183.136 49.6889 183.931C49.6687 184.726 49.4918 185.51 49.1684 186.236C48.8449 186.963 48.3812 187.619 47.8038 188.166Z" fill="white"/>
<path d="M112.666 117.445L74.8041 107.869C72.1867 107.209 69.4229 107.452 66.9613 108.559C64.4996 109.665 62.4845 111.57 61.2428 113.965L32.2998 169.687L57.2362 179.061L81.9886 141.837L149.363 151.648L112.666 117.445Z" fill="#3B03A6"/>
<path d="M62.3403 116.11C63.5846 113.718 65.6004 111.816 68.0614 110.711C70.5224 109.606 73.2847 109.364 75.901 110.023L113.763 119.599L147.916 151.467L149.298 151.671L112.646 117.471L74.7845 107.895C72.1671 107.235 69.4034 107.478 66.9417 108.585C64.4801 109.691 62.465 111.596 61.2233 113.991L32.2803 169.712L34.1413 170.413L62.3403 116.11Z" fill="white"/>
<path d="M57.2534 179.062L81.9701 141.836L125.178 148.133L130.86 134.425L112.665 117.445L52.6695 137.456L60.9105 143.044L32.2802 169.703L57.2534 179.062Z" fill="#2C027D"/>
<path d="M193.813 126.521L191.963 144.363C191.963 144.363 177.517 138.852 178.544 137.487C179.571 136.122 179.357 124.782 179.357 124.782L193.813 126.521Z" fill="#FFA163"/>
<path d="M125.541 67.9726L121.513 44.9352L109.145 48.6134C109.145 48.6134 111.784 85.6515 113.636 87.0574C115.487 88.4633 121.907 89.375 121.907 89.375L125.541 67.9726Z" fill="#FFCDA8"/>
<path d="M158.36 70.7887L125.541 67.9812L118.514 91.7859L140.301 95.2817L158.36 70.7887Z" fill="#D7D1EB"/>
<path d="M121.712 80.9675L118.514 91.786L140.301 95.2818L154.411 76.1503L121.712 80.9675Z" fill="#CCC3EB"/>
<path d="M188.139 70.6303L196.111 66.018C196.111 66.018 203.37 67.6628 206.444 63.2555C207.318 61.9542 207.831 60.4446 207.931 58.8806C208.031 57.3166 207.715 55.754 207.014 54.3518C207.014 54.3518 212.916 49.3657 212.469 43.0789C212.021 36.7922 206.091 34.2401 206.091 34.2401L200.762 30.6983C200.762 30.6983 196.782 16.5506 189.909 13.9113C183.036 11.272 183.702 20.5766 183.702 20.5766C183.702 20.5766 175.39 13.8579 169.234 17.2275C163.077 20.5971 165.647 31.0428 169.346 35.1686C173.046 39.2944 188.139 70.6303 188.139 70.6303Z" fill="#31F6A9"/>
<path d="M202.535 58.6159C202.535 58.6159 205.882 54.7087 206.027 50.3463C206.172 45.9838 201.862 41.3273 201.862 41.3273L200.809 36.2534L196.877 39.1128C196.877 39.1128 194.979 26.8238 190.136 26.022C185.293 25.2202 187.111 33.0251 187.111 33.0251C187.111 33.0251 180.757 26.4764 176.481 28.545C172.206 30.6136 174.2 37.2139 174.2 37.2139L202.535 58.6159Z" fill="#459F7C"/>
<path d="M190.726 64.1892L183.796 81.447L165.691 72.2864L168.448 65.6953L190.726 64.1892Z" fill="#FFA163"/>
<path d="M166.783 36.2116C166.783 36.2116 160.006 49.1253 159.379 55.1465C158.752 61.1678 161.152 65.3266 166.535 66.6368C171.919 67.947 194.269 65.7303 194.269 65.7303L200.843 52.0705L169.594 31.2957L166.783 36.2116Z" fill="#FFCDA8"/>
<path d="M195.391 53.9298C195.391 53.9298 198.752 43.3543 199.704 37.7114C200.304 34.345 200.313 30.8998 199.73 27.5302C200.199 27.4472 200.681 27.4742 201.138 27.6089C201.596 27.7437 202.015 27.9826 202.364 28.3068C203.573 29.4124 206.635 31.4858 207.065 32.7292C207.495 33.9726 204.964 51.5745 200.94 56.2876C196.916 61.0007 195.391 53.9298 195.391 53.9298Z" fill="#535FE9"/>
<path d="M207.083 32.7302C206.67 31.488 203.591 29.4134 202.382 28.3079C202.033 27.9836 201.613 27.7447 201.156 27.61C200.699 27.4752 200.217 27.4483 199.747 27.5313L199.814 27.8931C200.5 27.9434 201.149 28.2279 201.65 28.6991C202.859 29.8046 205.92 31.878 206.351 33.1215C206.781 34.3649 204.249 51.9668 200.225 56.6799C199.881 57.1003 199.485 57.4745 199.045 57.7933C199.791 57.4595 200.44 56.9411 200.931 56.287C204.981 51.5756 207.468 33.9708 207.083 32.7302Z" fill="white"/>
<path d="M200.278 61.8682C197.688 66.4138 192.596 68.3854 188.901 66.2804C185.206 64.1753 184.322 58.8351 186.915 54.2539C189.508 49.6727 194.598 47.7367 198.283 49.8412C201.969 51.9457 202.869 57.3137 200.278 61.8682Z" fill="#3B03A6"/>
<path d="M202.156 62.9215C204.349 59.0774 203.595 54.519 200.471 52.74C197.348 50.961 193.038 52.6351 190.845 56.4792C188.653 60.3232 189.407 64.8816 192.53 66.6606C195.654 68.4396 199.964 66.7655 202.156 62.9215Z" fill="#535FE9"/>
<path d="M200.487 52.745C199.163 52.0184 197.605 51.8417 196.152 52.2529C197.456 51.9981 198.809 52.2146 199.969 52.8639C203.094 54.6464 203.849 59.2005 201.653 63.0472C201.097 64.0682 200.344 64.9688 199.437 65.6966C198.531 66.4243 197.488 66.9647 196.37 67.2863C197.596 67.0257 198.751 66.5007 199.752 65.7479C200.754 64.9952 201.579 64.0329 202.17 62.9283C204.366 59.0906 203.612 54.5275 200.487 52.745Z" fill="white"/>
<path d="M170.012 30.92L188.066 41.0161C189.565 41.8575 190.691 43.2333 191.218 44.8683C191.746 46.5033 191.636 48.2769 190.911 49.8343L188.382 55.2332C187.985 56.0826 187.416 56.8409 186.712 57.4605C186.007 58.08 185.183 58.5475 184.289 58.8336C183.395 59.1197 182.452 59.2182 181.518 59.123C180.585 59.0278 179.681 58.7409 178.863 58.2803L160.727 48.0628C159.218 47.2103 158.089 45.8152 157.572 44.1613C157.054 42.5073 157.187 40.7186 157.942 39.1589L160.527 33.8709C160.932 33.0332 161.505 32.2876 162.211 31.6803C162.917 31.073 163.74 30.6169 164.629 30.3402C165.518 30.0636 166.455 29.9723 167.381 30.0721C168.307 30.1718 169.202 30.4604 170.012 30.92Z" fill="#535FE9"/>
<path d="M161.761 48.5669C160.25 47.7127 159.122 46.3155 158.607 44.6598C158.091 43.004 158.226 41.2142 158.985 39.6547L161.56 34.3661C162.311 32.8206 163.62 31.6165 165.223 30.996C166.827 30.3755 168.606 30.3847 170.203 31.0216L170.013 30.92C169.203 30.4667 168.309 30.1837 167.386 30.0884C166.463 29.9931 165.53 30.0875 164.645 30.3658C163.76 30.6441 162.941 31.1004 162.238 31.7066C161.536 32.3128 160.966 33.0562 160.562 33.891L157.977 39.179C157.222 40.7387 157.089 42.5274 157.607 44.1813C158.124 45.8353 159.253 47.2304 160.763 48.0828L178.899 58.3003C179.178 58.4511 179.469 58.5803 179.769 58.6868L161.761 48.5669Z" fill="white"/>
<path d="M188.066 41.0249L183.635 38.5419C184.527 39.5308 185.109 40.759 185.309 42.0748C185.509 43.3905 185.319 44.7361 184.763 45.945L182.234 51.3439C181.836 52.1933 181.268 52.9516 180.563 53.5712C179.859 54.1907 179.034 54.6582 178.141 54.9443C177.247 55.2304 176.304 55.3289 175.37 55.2337C174.436 55.1385 173.533 54.8516 172.715 54.391L159.052 46.7128C159.539 47.2603 160.114 47.7232 160.753 48.0823L178.889 58.2997C179.707 58.7603 180.611 59.0472 181.544 59.1424C182.478 59.2377 183.421 59.1391 184.315 58.8531C185.208 58.567 186.033 58.0995 186.738 57.4799C187.442 56.8604 188.011 56.1021 188.408 55.2526L190.937 49.8538C191.663 48.2921 191.77 46.5137 191.238 44.8758C190.705 43.238 189.572 41.8622 188.066 41.0249Z" fill="#3B03A6"/>
<path d="M165.691 72.2866C165.691 72.2866 159.41 69.2024 155.346 72.3126C151.281 75.4228 112.666 117.446 112.666 117.446L153.715 156.335C153.715 156.335 169.239 138.733 177.813 123.601C186.388 108.469 189.409 85.168 189.409 85.168L183.823 81.4488L165.691 72.2866Z" fill="white"/>
<path d="M153.059 155.676L153.776 156.222C154.818 155.037 169.553 138.154 177.816 123.557C180.8 118.026 183.155 112.18 184.837 106.126L174.038 101.644L152.89 121.147L158.103 128.195L137.443 140.899L153.059 155.676Z" fill="#E9E5F6"/>
<path d="M174.759 128.26C174.759 128.26 171.856 110.561 174.047 101.644C176.237 92.7283 184.438 84.6888 189.418 85.1685C194.398 85.6483 198.993 128.471 198.993 128.471L176.48 132.393L174.759 128.26Z" fill="#D7D1EB"/>
<path d="M179.571 91.1091C176.959 94.1614 175.068 97.762 174.038 101.644C171.848 110.56 174.75 128.26 174.75 128.26L176.438 132.364L188.2 130.337L179.571 91.1091Z" fill="#CCC3EB"/>
<path d="M163.118 123.098C163.118 123.098 183.617 131.902 188.628 135.674C193.638 139.446 192.824 146.993 188.771 149.648C184.718 152.303 178.951 151.12 174.014 148.703C169.078 146.286 159.314 137.087 159.314 137.087L163.118 123.098Z" fill="#FFCDA8"/>
<path d="M191.955 141.144C191.989 142.505 191.701 143.855 191.114 145.084C190.527 146.313 189.657 147.385 188.576 148.214C184.327 151.134 178.171 150.015 172.87 147.557C170.866 146.531 168.96 145.323 167.178 143.947C169.304 145.75 171.599 147.343 174.032 148.704C178.968 151.121 184.736 152.295 188.789 149.649C191.282 148.012 192.544 144.516 191.955 141.144Z" fill="white"/>
<path d="M121.644 42.9055L122.355 41.4401C123.735 38.5843 124.098 35.3427 123.382 32.2528L119.257 14.493L105.238 5.94265C105.013 5.80512 104.762 5.71452 104.501 5.67628C104.24 5.63805 103.974 5.65298 103.719 5.72017C103.464 5.78736 103.225 5.90542 103.017 6.06726C102.809 6.22909 102.636 6.43135 102.508 6.66185L101.735 8.1054C101.556 8.45813 101.45 8.8438 101.425 9.23878C101.399 9.63377 101.455 10.0298 101.588 10.4025C102.385 12.7697 103.949 14.8043 106.032 16.1852L109.654 18.5895L110.148 22.8856L104.604 25.624C102.364 26.7315 100.459 28.4146 99.0845 30.5006C98.5114 31.3681 98.2516 32.405 98.348 33.4401C98.4444 34.4752 98.8912 35.4465 99.6148 36.1936L106.049 42.7563L107.827 47.1168L121.644 42.9055Z" fill="#535FE9"/>
<path d="M105.987 16.1819L109.609 18.5862C108.79 16.5435 107.37 14.7972 105.536 13.5783L104.73 13.035C103.374 12.1512 102.227 10.9825 101.37 9.61035C101.376 9.87703 101.42 10.1416 101.499 10.3964C102.307 12.7711 103.887 14.8076 105.987 16.1819Z" fill="white"/>
<path d="M107.819 47.1161L108.663 56.146L124.501 51.939L121.644 42.9054L107.819 47.1161Z" fill="#3B03A6"/>
<path d="M123.381 32.2525L122.982 30.5283L115.558 29.0786C114.407 28.8549 113.221 28.8827 112.082 29.1599L107.128 30.3626C106.418 30.5366 105.791 30.9517 105.353 31.5369C104.916 32.1221 104.696 32.841 104.731 33.5706C104.761 34.2504 105.012 34.9018 105.444 35.4275C105.877 35.9532 106.468 36.3248 107.13 36.4867L122.84 40.2908C123.814 37.7243 124.002 34.9264 123.381 32.2525Z" fill="#3B03A6"/>
<path d="M112.666 117.445L68.6371 137.111C66.5548 138.051 64.8825 139.711 63.9277 141.785C62.9729 143.859 62.7999 146.208 63.4405 148.4L83.6704 216.612L111.208 205.761L96.8943 160.582L149.33 152.165L112.666 117.445Z" fill="#535FE9"/>
<path d="M110.948 205.905L111.214 205.806L97.9014 163.856L97.6122 163.9L110.948 205.905Z" fill="white"/>
<path d="M68.6489 138.882L114.007 118.72L112.666 117.446L68.6459 137.112C66.5636 138.052 64.8913 139.712 63.9365 141.786C62.9817 143.86 62.8087 146.209 63.4493 148.401L63.8544 149.759C63.5298 145.885 64.9368 140.54 68.6489 138.882Z" fill="white"/>
<path d="M161.725 122.205L150.399 111.002L133.386 111.2C132.467 111.21 131.576 111.517 130.845 112.074C130.115 112.632 129.584 113.41 129.331 114.293L128.408 117.533C128.214 118.204 128.286 118.925 128.61 119.545C128.933 120.165 129.483 120.636 130.145 120.862L132.921 121.809L132.435 128.152C132.394 128.648 132.457 129.147 132.621 129.616C132.784 130.086 133.045 130.517 133.384 130.88C133.724 131.244 134.136 131.532 134.594 131.727C135.052 131.922 135.546 132.02 136.044 132.013L144.023 131.907L157.112 136.115L161.725 122.205Z" fill="#535FE9"/>
<path d="M161.725 122.204L170.973 125.622L162.905 141.778L156.253 135.836L161.725 122.204Z" fill="#3B03A6"/>
<path d="M109.277 206.567L119.098 229.269L80.4761 253.643L75.7336 244.283L85.8709 215.779L109.277 206.567Z" fill="#67DFB0"/>
<path d="M80.4757 253.643L119.097 229.269L116.237 222.658L76.9329 246.649L80.4757 253.643Z" fill="#E9E5F6"/>
<path d="M109.228 219.5C109.153 220.697 108.724 221.844 107.997 222.797C107.269 223.749 106.275 224.465 105.141 224.853C104.006 225.242 102.781 225.285 101.622 224.977C100.462 224.67 99.4201 224.026 98.6271 223.126C97.8341 222.227 97.3259 221.113 97.1668 219.925C97.0077 218.737 97.2049 217.528 97.7334 216.452C98.2618 215.377 99.0978 214.482 100.136 213.881C101.173 213.28 102.366 213 103.563 213.076C105.167 213.179 106.663 213.913 107.725 215.118C108.787 216.322 109.328 217.898 109.228 219.5Z" fill="white"/>
<path d="M96.8583 160.58L149.285 152.162L124.923 129.066L77.9795 154.839L89.2264 157.499L78.4886 169.667L90.1711 170.415L90.5797 213.926L111.214 205.806L96.8583 160.58Z" fill="#3E47AF"/>
<path d="M150.399 111.002L143.595 127.266L159.288 128.271L161.725 122.205L150.399 111.002Z" fill="#3E47AF"/>
<path d="M198.958 128.468C198.958 128.468 194.328 85.6259 189.409 85.168C189.409 85.168 195.666 117.556 196.85 128.834L198.958 128.468Z" fill="white"/>
<path d="M199.714 27.5023C198.103 23.1705 194.722 15.7483 189.936 13.922C187.429 12.9658 185.921 13.5935 185.013 14.778C194.552 14.3516 199.517 26.9532 199.714 27.5023Z" fill="white"/>
<path d="M170.548 18.2056C176.59 15.8031 183.702 20.5765 183.702 20.5765C183.702 20.5765 175.39 13.8578 169.233 17.2274C164.94 19.572 164.901 25.3538 166.507 30.0429C166.437 29.7433 164.599 20.5694 170.548 18.2056Z" fill="white"/>
<path d="M212.475 42.9809C212.319 41.2588 211.741 39.6014 210.793 38.1548C209.845 36.7081 208.556 35.5166 207.038 34.6851C207.038 34.6851 210.922 38.7243 210.416 44.1097C209.967 47.691 208.812 51.1478 207.018 54.2805C207.018 54.2805 212.917 49.3567 212.475 42.9809Z" fill="white"/>
<path d="M116.36 88.26C114.827 85.8607 113.814 83.1678 113.385 80.3543L109.791 56.9692C110.697 67.9789 112.399 86.1111 113.643 87.0848C114.478 87.6228 115.396 88.0198 116.36 88.26Z" fill="white"/>
<path d="M148.914 152.219L149.091 151.971L148.812 151.712L93.854 158.447L111.214 205.806L96.8581 160.58L148.914 152.219Z" fill="white"/>
<path d="M106.702 6.83203L117.331 16.0682L122.982 30.5286L119.257 14.4929L106.702 6.83203Z" fill="white"/>
</g>
<defs>
<clipPath id="clip0_36_2888">
<rect width="199" height="249" fill="white" transform="translate(15.9092) rotate(3.66328)"/>
</clipPath>
</defs>
</svg>
