<svg width="375" height="812" viewBox="0 0 375 812" fill="none" xmlns="http://www.w3.org/2000/svg">
<g clip-path="url(#clip0_66_254)">
<rect width="375" height="812" fill="white"/>
<rect opacity="0.35" x="333.833" y="14.8333" width="21" height="10.3333" rx="2.16667" stroke="#48484A"/>
<path opacity="0.4" d="M356.333 18V22C357.138 21.6612 357.661 20.8731 357.661 20C357.661 19.1269 357.138 18.3388 356.333 18Z" fill="black"/>
<rect x="335.333" y="16.3333" width="18" height="7.33333" rx="1.33333" fill="black"/>
<path fill-rule="evenodd" clip-rule="evenodd" d="M320.667 16.6152C322.892 16.6153 325.031 17.4694 326.644 19.001C326.765 19.1192 326.959 19.1177 327.079 18.9976L328.239 17.8273C328.3 17.7664 328.334 17.6839 328.333 17.598C328.333 17.5122 328.298 17.4301 328.237 17.3699C324.005 13.3176 317.329 13.3176 313.097 17.3699C313.035 17.43 313.001 17.5121 313 17.598C312.999 17.6838 313.033 17.7663 313.094 17.8273L314.255 18.9976C314.374 19.1179 314.568 19.1194 314.69 19.001C316.302 17.4693 318.442 16.6152 320.667 16.6152ZM320.667 20.4227C321.889 20.4227 323.068 20.8766 323.974 21.6964C324.097 21.8127 324.29 21.8102 324.409 21.6907L325.569 20.5204C325.63 20.459 325.663 20.3757 325.663 20.2892C325.662 20.2027 325.626 20.1201 325.564 20.0599C322.805 17.4955 318.532 17.4955 315.773 20.0599C315.71 20.1201 315.675 20.2027 315.674 20.2893C315.673 20.3758 315.707 20.4591 315.768 20.5204L316.927 21.6907C317.047 21.8102 317.24 21.8127 317.362 21.6964C318.268 20.8772 319.446 20.4233 320.667 20.4227ZM322.989 22.9846C322.991 23.0714 322.957 23.155 322.895 23.2158L320.89 25.2378C320.831 25.2972 320.751 25.3307 320.667 25.3307C320.583 25.3307 320.503 25.2972 320.445 25.2378L318.439 23.2158C318.377 23.155 318.343 23.0713 318.345 22.9845C318.347 22.8977 318.384 22.8156 318.449 22.7574C319.729 21.6751 321.605 21.6751 322.886 22.7574C322.95 22.8156 322.988 22.8978 322.989 22.9846Z" fill="black"/>
<path fill-rule="evenodd" clip-rule="evenodd" d="M307 14.6667H306C305.448 14.6667 305 15.1144 305 15.6667V24.3334C305 24.8856 305.448 25.3334 306 25.3334H307C307.552 25.3334 308 24.8856 308 24.3334V15.6667C308 15.1144 307.552 14.6667 307 14.6667ZM301.333 17H302.333C302.886 17 303.333 17.4477 303.333 18V24.3334C303.333 24.8856 302.886 25.3334 302.333 25.3334H301.333C300.781 25.3334 300.333 24.8856 300.333 24.3334V18C300.333 17.4477 300.781 17 301.333 17ZM297.667 19.3334H296.667C296.114 19.3334 295.667 19.7811 295.667 20.3334V24.3334C295.667 24.8856 296.114 25.3334 296.667 25.3334H297.667C298.219 25.3334 298.667 24.8856 298.667 24.3334V20.3334C298.667 19.7811 298.219 19.3334 297.667 19.3334ZM293 21.3334H292C291.448 21.3334 291 21.7811 291 22.3334V24.3334C291 24.8856 291.448 25.3334 292 25.3334H293C293.552 25.3334 294 24.8856 294 24.3334V22.3334C294 21.7811 293.552 21.3334 293 21.3334Z" fill="black"/>
<path d="M23.6834 25.15C23.2534 25.15 22.8084 25.085 22.3484 24.955C21.8884 24.815 21.4584 24.61 21.0584 24.34C20.8984 24.24 20.7934 24.11 20.7434 23.95C20.6934 23.79 20.6834 23.635 20.7134 23.485C20.7534 23.325 20.8234 23.19 20.9234 23.08C21.0334 22.96 21.1684 22.89 21.3284 22.87C21.4884 22.84 21.6634 22.88 21.8534 22.99C22.1934 23.19 22.5134 23.33 22.8134 23.41C23.1134 23.49 23.4134 23.53 23.7134 23.53C24.2934 23.53 24.7834 23.395 25.1834 23.125C25.5834 22.855 25.8834 22.45 26.0834 21.91C26.2934 21.36 26.3984 20.685 26.3984 19.885V18.76H26.5784C26.5084 19.26 26.3434 19.695 26.0834 20.065C25.8234 20.435 25.4934 20.72 25.0934 20.92C24.6934 21.11 24.2484 21.205 23.7584 21.205C23.1584 21.205 22.6184 21.06 22.1384 20.77C21.6684 20.48 21.2984 20.08 21.0284 19.57C20.7584 19.05 20.6234 18.465 20.6234 17.815C20.6234 17.125 20.7684 16.515 21.0584 15.985C21.3584 15.455 21.7734 15.04 22.3034 14.74C22.8334 14.43 23.4384 14.275 24.1184 14.275C24.9984 14.275 25.7434 14.48 26.3534 14.89C26.9634 15.3 27.4284 15.9 27.7484 16.69C28.0684 17.47 28.2284 18.415 28.2284 19.525C28.2284 20.425 28.1234 21.225 27.9134 21.925C27.7134 22.615 27.4184 23.2 27.0284 23.68C26.6384 24.16 26.1584 24.525 25.5884 24.775C25.0284 25.025 24.3934 25.15 23.6834 25.15ZM24.2384 19.675C24.5984 19.675 24.9134 19.595 25.1834 19.435C25.4634 19.265 25.6784 19.035 25.8284 18.745C25.9784 18.445 26.0534 18.105 26.0534 17.725C26.0534 17.335 25.9784 16.995 25.8284 16.705C25.6784 16.415 25.4634 16.19 25.1834 16.03C24.9134 15.87 24.5984 15.79 24.2384 15.79C23.8784 15.79 23.5634 15.87 23.2934 16.03C23.0234 16.19 22.8084 16.415 22.6484 16.705C22.4984 16.995 22.4234 17.335 22.4234 17.725C22.4234 18.105 22.4984 18.445 22.6484 18.745C22.8084 19.035 23.0234 19.265 23.2934 19.435C23.5634 19.595 23.8784 19.675 24.2384 19.675ZM30.6376 25.075C30.2976 25.075 30.0226 24.97 29.8126 24.76C29.6126 24.55 29.5126 24.28 29.5126 23.95C29.5126 23.63 29.6126 23.37 29.8126 23.17C30.0226 22.96 30.2976 22.855 30.6376 22.855C30.9876 22.855 31.2576 22.96 31.4476 23.17C31.6476 23.37 31.7476 23.63 31.7476 23.95C31.7476 24.28 31.6476 24.55 31.4476 24.76C31.2576 24.97 30.9876 25.075 30.6376 25.075ZM30.6376 19.81C30.2976 19.81 30.0226 19.705 29.8126 19.495C29.6126 19.285 29.5126 19.02 29.5126 18.7C29.5126 18.37 29.6126 18.105 29.8126 17.905C30.0226 17.695 30.2976 17.59 30.6376 17.59C30.9876 17.59 31.2576 17.695 31.4476 17.905C31.6476 18.105 31.7476 18.37 31.7476 18.7C31.7476 19.02 31.6476 19.285 31.4476 19.495C31.2576 19.705 30.9876 19.81 30.6376 19.81ZM38.4383 25.12C38.1383 25.12 37.9033 25.04 37.7333 24.88C37.5633 24.71 37.4783 24.47 37.4783 24.16V22.99H33.7733C33.4633 22.99 33.2133 22.925 33.0233 22.795C32.8433 22.665 32.7533 22.46 32.7533 22.18C32.7533 22.02 32.7933 21.845 32.8733 21.655C32.9633 21.465 33.1183 21.215 33.3383 20.905L37.4483 14.95C37.5883 14.74 37.7433 14.58 37.9133 14.47C38.0833 14.36 38.2783 14.305 38.4983 14.305C38.7583 14.305 38.9733 14.385 39.1433 14.545C39.3133 14.695 39.3983 14.935 39.3983 15.265V21.4H40.1333C40.4233 21.4 40.6383 21.47 40.7783 21.61C40.9283 21.74 41.0033 21.935 41.0033 22.195C41.0033 22.455 40.9283 22.655 40.7783 22.795C40.6383 22.925 40.4233 22.99 40.1333 22.99H39.3983V24.16C39.3983 24.47 39.3133 24.71 39.1433 24.88C38.9733 25.04 38.7383 25.12 38.4383 25.12ZM37.4783 21.4V16.72H37.9133L34.3733 21.91V21.4H37.4783ZM43.3374 25C43.0774 25 42.8724 24.93 42.7224 24.79C42.5824 24.64 42.5124 24.44 42.5124 24.19C42.5124 23.93 42.5824 23.735 42.7224 23.605C42.8724 23.475 43.0774 23.41 43.3374 23.41H45.0174V16.045H45.9474L43.7424 17.38C43.5524 17.49 43.3724 17.535 43.2024 17.515C43.0424 17.485 42.9024 17.415 42.7824 17.305C42.6724 17.185 42.5974 17.045 42.5574 16.885C42.5174 16.725 42.5274 16.565 42.5874 16.405C42.6574 16.235 42.7874 16.095 42.9774 15.985L45.0474 14.74C45.2474 14.62 45.4474 14.52 45.6474 14.44C45.8474 14.35 46.0324 14.305 46.2024 14.305C46.4124 14.305 46.5874 14.365 46.7274 14.485C46.8674 14.595 46.9374 14.78 46.9374 15.04V23.41H48.4674C48.7274 23.41 48.9274 23.475 49.0674 23.605C49.2174 23.735 49.2924 23.93 49.2924 24.19C49.2924 24.45 49.2174 24.65 49.0674 24.79C48.9274 24.93 48.7274 25 48.4674 25H43.3374Z" fill="black"/>
<rect y="-142" width="375" height="326" rx="141" fill="url(#paint0_linear_66_254)"/>
</g>
<defs>
<linearGradient id="paint0_linear_66_254" x1="14" y1="-45" x2="408" y2="285" gradientUnits="userSpaceOnUse">
<stop stop-color="#24B4D5"/>
<stop offset="1" stop-color="#31F6A9"/>
</linearGradient>
<clipPath id="clip0_66_254">
<rect width="375" height="812" fill="white"/>
</clipPath>
</defs>
</svg>
