<svg width="165" height="105" viewBox="0 0 165 105" fill="none" xmlns="http://www.w3.org/2000/svg">
<g filter="url(#filter0_dd_0_1)">
<rect x="5" y="5" width="155" height="95" rx="10" fill="white"/>
</g>
<path d="M67.978 54.2046C71.9024 51.4139 71.9024 45.586 67.978 42.7953L25.5567 12.6284C20.9222 9.33267 14.5 12.6462 14.5 18.3331L14.5 78.6669C14.5 84.3538 20.9222 87.6673 25.5567 84.3715L67.978 54.2046Z" fill="#FF0000"/>
<path d="M70.167 71.8026C72.4913 70.2143 72.4913 66.7857 70.167 65.1974L51.2568 52.2755C48.6019 50.4613 45 52.3625 45 55.578V81.422C45 84.6375 48.6019 86.5387 51.2568 84.7245L70.167 71.8026Z" fill="#FF0000" fill-opacity="0.3"/>
<path d="M73.7488 55V41H78.3788C79.3455 41 80.2522 41.1833 81.0988 41.55C81.9455 41.91 82.6888 42.4133 83.3288 43.06C83.9688 43.7 84.4688 44.4433 84.8288 45.29C85.1955 46.13 85.3788 47.0333 85.3788 48C85.3788 48.9667 85.1955 49.8733 84.8288 50.72C84.4688 51.56 83.9688 52.3033 83.3288 52.95C82.6888 53.59 81.9455 54.0933 81.0988 54.46C80.2522 54.82 79.3455 55 78.3788 55H73.7488ZM75.8288 52.92H78.3788C79.0588 52.92 79.6922 52.7933 80.2788 52.54C80.8722 52.2867 81.3955 51.9333 81.8488 51.48C82.3088 51.0267 82.6655 50.5033 82.9188 49.91C83.1722 49.3167 83.2988 48.68 83.2988 48C83.2988 47.32 83.1722 46.6833 82.9188 46.09C82.6655 45.4967 82.3088 44.9733 81.8488 44.52C81.3955 44.0667 80.8722 43.7133 80.2788 43.46C79.6922 43.2067 79.0588 43.08 78.3788 43.08H75.8288V52.92ZM85.5863 60V57.92C86.0063 57.92 86.383 57.8233 86.7163 57.63C87.0563 57.4433 87.323 57.1833 87.5163 56.85C87.7163 56.5167 87.8163 56.1467 87.8163 55.74V45H89.8963V55.74C89.8963 56.52 89.7063 57.2333 89.3263 57.88C88.9463 58.5267 88.4297 59.04 87.7763 59.42C87.1297 59.8067 86.3997 60 85.5863 60ZM88.8763 43.55C88.5563 43.55 88.2897 43.4467 88.0763 43.24C87.863 43.0333 87.7563 42.7733 87.7563 42.46C87.7563 42.1533 87.863 41.8967 88.0763 41.69C88.2897 41.4767 88.553 41.37 88.8663 41.37C89.173 41.37 89.433 41.4767 89.6463 41.69C89.8597 41.8967 89.9663 42.1533 89.9663 42.46C89.9663 42.7733 89.8597 43.0333 89.6463 43.24C89.4397 43.4467 89.183 43.55 88.8763 43.55ZM96.9176 55.26C95.9976 55.26 95.1576 55.0233 94.3976 54.55C93.6442 54.0767 93.0409 53.4433 92.5876 52.65C92.1409 51.85 91.9176 50.9667 91.9176 50C91.9176 49.2667 92.0476 48.5833 92.3076 47.95C92.5676 47.31 92.9242 46.75 93.3776 46.27C93.8376 45.7833 94.3709 45.4033 94.9776 45.13C95.5842 44.8567 96.2309 44.72 96.9176 44.72C97.6842 44.72 98.3876 44.88 99.0276 45.2C99.6676 45.5133 100.214 45.95 100.668 46.51C101.121 47.0633 101.454 47.7033 101.668 48.43C101.881 49.15 101.944 49.9167 101.858 50.73H94.1476C94.2342 51.19 94.4009 51.6067 94.6476 51.98C94.9009 52.3467 95.2209 52.6367 95.6076 52.85C96.0009 53.0633 96.4376 53.1733 96.9176 53.18C97.4242 53.18 97.8842 53.0533 98.2976 52.8C98.7176 52.5467 99.0609 52.1967 99.3276 51.75L101.438 52.24C101.038 53.1267 100.434 53.8533 99.6276 54.42C98.8209 54.98 97.9176 55.26 96.9176 55.26ZM94.0776 49.14H99.7576C99.6909 48.66 99.5209 48.2267 99.2476 47.84C98.9809 47.4467 98.6442 47.1367 98.2376 46.91C97.8376 46.6767 97.3976 46.56 96.9176 46.56C96.4442 46.56 96.0042 46.6733 95.5976 46.9C95.1976 47.1267 94.8642 47.4367 94.5976 47.83C94.3376 48.2167 94.1642 48.6533 94.0776 49.14ZM111.897 47.08L106.337 52.92H111.897V55H103.357V52.92L108.917 47.08H103.357V45H111.897V47.08ZM122.434 47.08L116.874 52.92H122.434V55H113.894V52.92L119.454 47.08H113.894V45H122.434V47.08ZM131.427 45H133.647L128.167 60H125.957L127.767 55L124.177 45H126.447L128.807 52.15L131.427 45Z" fill="#FF0000"/>
<defs>
<filter id="filter0_dd_0_1" x="0" y="0" width="165" height="105" filterUnits="userSpaceOnUse" color-interpolation-filters="sRGB">
<feFlood flood-opacity="0" result="BackgroundImageFix"/>
<feColorMatrix in="SourceAlpha" type="matrix" values="0 0 0 0 0 0 0 0 0 0 0 0 0 0 0 0 0 0 127 0" result="hardAlpha"/>
<feOffset/>
<feGaussianBlur stdDeviation="2.5"/>
<feComposite in2="hardAlpha" operator="out"/>
<feColorMatrix type="matrix" values="0 0 0 0 0 0 0 0 0 0 0 0 0 0 0 0 0 0 0.1 0"/>
<feBlend mode="normal" in2="BackgroundImageFix" result="effect1_dropShadow_0_1"/>
<feColorMatrix in="SourceAlpha" type="matrix" values="0 0 0 0 0 0 0 0 0 0 0 0 0 0 0 0 0 0 127 0" result="hardAlpha"/>
<feOffset/>
<feGaussianBlur stdDeviation="2.5"/>
<feComposite in2="hardAlpha" operator="out"/>
<feColorMatrix type="matrix" values="0 0 0 0 0 0 0 0 0 0 0 0 0 0 0 0 0 0 0.1 0"/>
<feBlend mode="normal" in2="effect1_dropShadow_0_1" result="effect2_dropShadow_0_1"/>
<feBlend mode="normal" in="SourceGraphic" in2="effect2_dropShadow_0_1" result="shape"/>
</filter>
</defs>
</svg>
