<svg width="217" height="23" viewBox="0 0 217 23" fill="none" xmlns="http://www.w3.org/2000/svg">
<path d="M62.0863 0.566607V22.5738H56.7942L45.1747 8.05259V22.5738H39.8826V1.41651L45.1747 1.14441e-05L56.7942 14.517V0.566607H62.0863Z" fill="black"/>
<path d="M71.2608 17.8533H86.8807L85.5025 22.5739H66.1572V0.370087H86.8807L85.5025 5.09061H71.2608V9.12687H84.5336V13.8647H71.2608V17.8533Z" fill="black"/>
<path d="M108.354 0.370087H114.356L105.239 11.3205L114.635 22.5739H108.634L101.502 13.965L94.3708 22.5739H88.3608L97.7567 11.3205L88.6402 0.370087H94.6501L101.502 8.66296L108.354 0.370087Z" fill="black"/>
<path d="M114.635 0.370087H137.579L136.166 5.09061H127.961V22.5739H122.729V5.09061H114.635V0.370087Z" fill="black"/>
<path d="M137.579 0.370087H143.19L147.447 16.2778L153.714 0.370087H156.966L163.234 16.2778L167.491 0.370087H173.105L165.88 21.5274L160.561 22.9439L155.338 8.93346L149.949 21.5274L144.626 22.9439L137.579 0.370087Z" fill="black"/>
<path d="M181.161 15.1437H187.338L183.03 6.00941L175.328 22.5739H169.775L180.277 1.41652L185.546 2.28882e-05L196.419 22.5739H190.866L189.471 19.625H179.226L181.161 15.1437Z" fill="black"/>
<path d="M206.034 22.5739H200.789V14.9041L190.128 0.370087H196.214L203.446 10.7639L210.678 0.370087H216.773L206.043 15.021L206.034 22.5739Z" fill="black"/>
<path d="M17.0572 1.14441e-05L24.8739 15.6715L21.422 22.7338L10.7493 1.14441e-05H17.0572Z" fill="url(#paint0_linear_21_300)"/>
<path d="M31.8992 1.14441e-05L27.3364 9.44282L26.7419 3.4519L22.0205 1.14441e-05H31.8992Z" fill="#31F6A9"/>
<path d="M10.7492 0.00151825L14.1246 7.06245L6.30933 22.6643H0L10.7492 0.00151825Z" fill="#24B4D5"/>
<path opacity="0.06" d="M10.7492 0.00138092L10.1643 1.30916L14.1245 7.06231L10.7492 0.00138092Z" fill="black"/>
<defs>
<linearGradient id="paint0_linear_21_300" x1="10.7493" y1="11.3669" x2="24.8739" y2="11.3669" gradientUnits="userSpaceOnUse">
<stop stop-color="#24B4D5"/>
<stop offset="0.99" stop-color="#31F6A9"/>
</linearGradient>
</defs>
</svg>
