<svg width="175" height="104" viewBox="0 0 175 104" fill="none" xmlns="http://www.w3.org/2000/svg">
<path d="M21.6373 81.8056V103.443H16.4801L5.15717 89.1658V103.443H0V82.6413L5.15717 81.2486L16.4801 95.5215V81.8056H21.6373Z" fill="black"/>
<path d="M30.9767 98.8428H46.7605L45.3678 103.443H25.8196V81.8056H46.7605L45.3678 86.4057H30.9767V90.339H44.3887V94.956H30.9767V98.8428Z" fill="black"/>
<path d="M67.4483 81.8056H73.4326L64.3421 92.4829L73.7111 103.456H67.7268L60.6156 95.0615L53.5045 103.456H47.5117L56.8807 92.4829L47.7903 81.8056H53.783L60.6156 89.8917L67.4483 81.8056Z" fill="black"/>
<path d="M73.804 81.8056H96.4161L95.0234 86.4057H86.9374V103.443H81.7803V86.4057H73.804V81.8056Z" fill="black"/>
<path d="M96.8044 81.8056H102.244L106.372 97.4459L112.449 81.8056H115.602L121.679 97.4459L125.806 81.8056H131.25L124.245 102.607L119.087 104L114.023 90.2251L108.798 102.607L103.637 104L96.8044 81.8056Z" fill="black"/>
<path d="M139.243 96.1377H145.295L141.075 87.1569L133.529 103.443H128.089L138.378 82.6413L143.54 81.2486L154.192 103.443H148.752L147.384 100.544H137.348L139.243 96.1377Z" fill="black"/>
<path d="M163.696 103.443H158.539V95.9688L148.055 81.8056H154.04L161.151 91.9343L168.262 81.8056H174.255L163.704 96.0828L163.696 103.443Z" fill="black"/>
<path d="M90.6513 0L114.791 48.398L104.131 70.2083L71.1705 0H90.6513Z" fill="url(#paint0_linear_21_152)"/>
<path d="M136.488 0L122.396 29.162L120.56 10.6604L105.979 0H136.488Z" fill="#31F6A9"/>
<path d="M71.1706 0.00421143L81.5947 21.8103L57.459 69.9931H37.974L71.1706 0.00421143Z" fill="#24B4D5"/>
<path opacity="0.06" d="M71.1705 0.00421143L69.3643 4.04301L81.5946 21.8103L71.1705 0.00421143Z" fill="black"/>
<defs>
<linearGradient id="paint0_linear_21_152" x1="71.1705" y1="35.1042" x2="114.791" y2="35.1042" gradientUnits="userSpaceOnUse">
<stop stop-color="#24B4D5"/>
<stop offset="0.99" stop-color="#31F6A9"/>
</linearGradient>
</defs>
</svg>
