<svg width="165" height="105" viewBox="0 0 165 105" fill="none" xmlns="http://www.w3.org/2000/svg">
<g filter="url(#filter0_dd_0_1)">
<rect x="5" y="5" width="155" height="95" rx="10" fill="url(#paint0_linear_0_1)"/>
</g>
<path d="M93 89L123.5 74L160 85.5L160 90.5L159.5 93.5L157.866 96.5L93 89Z" fill="url(#paint1_linear_0_1)"/>
<path d="M66 5H125L160 52V73L66 5Z" fill="url(#paint2_linear_0_1)"/>
<path d="M93 69L134 54L160 73L93 89V69Z" fill="url(#paint3_linear_0_1)"/>
<path d="M51.9355 59L54.6455 45H56.3255L59.9155 54.43L63.4855 45H65.1655L67.8855 59H65.7655L63.9555 49.63L60.6055 58.47H59.2055L55.8655 49.63L54.0555 59H51.9355ZM74.1184 59.26C73.1984 59.26 72.3584 59.0233 71.5984 58.55C70.845 58.0767 70.2417 57.4433 69.7884 56.65C69.3417 55.85 69.1184 54.9667 69.1184 54C69.1184 53.2667 69.2484 52.5833 69.5084 51.95C69.7684 51.31 70.125 50.75 70.5784 50.27C71.0384 49.7833 71.5717 49.4033 72.1784 49.13C72.785 48.8567 73.4317 48.72 74.1184 48.72C75.0384 48.72 75.875 48.9567 76.6284 49.43C77.3884 49.9033 77.9917 50.54 78.4384 51.34C78.8917 52.14 79.1184 53.0267 79.1184 54C79.1184 54.7267 78.9884 55.4067 78.7284 56.04C78.4684 56.6733 78.1084 57.2333 77.6484 57.72C77.195 58.2 76.665 58.5767 76.0584 58.85C75.4584 59.1233 74.8117 59.26 74.1184 59.26ZM74.1184 57.18C74.6717 57.18 75.1684 57.0333 75.6084 56.74C76.0484 56.4467 76.395 56.06 76.6484 55.58C76.9084 55.0933 77.0384 54.5667 77.0384 54C77.0384 53.42 76.905 52.8867 76.6384 52.4C76.3784 51.9133 76.0284 51.5267 75.5884 51.24C75.1484 50.9467 74.6584 50.8 74.1184 50.8C73.5717 50.8 73.075 50.9467 72.6284 51.24C72.1884 51.5333 71.8384 51.9233 71.5784 52.41C71.325 52.8967 71.1984 53.4267 71.1984 54C71.1984 54.5933 71.3317 55.13 71.5984 55.61C71.865 56.09 72.2184 56.4733 72.6584 56.76C73.105 57.04 73.5917 57.18 74.1184 57.18ZM86.1973 48.72C87.1706 48.72 88.0539 48.9567 88.8473 49.43C89.6473 49.9033 90.2839 50.54 90.7573 51.34C91.2306 52.1333 91.4673 53.0167 91.4673 53.99C91.4673 54.7167 91.3306 55.4 91.0573 56.04C90.7839 56.6733 90.4039 57.2333 89.9173 57.72C89.4373 58.2 88.8773 58.5767 88.2373 58.85C87.6039 59.1233 86.9239 59.26 86.1973 59.26C85.4973 59.26 84.8839 59.1 84.3573 58.78C83.8373 58.4533 83.4106 58.0367 83.0773 57.53V59H80.9973V44H83.0773V50.45C83.4106 49.9367 83.8373 49.52 84.3573 49.2C84.8839 48.88 85.4973 48.72 86.1973 48.72ZM86.1773 57.24C86.7573 57.24 87.2873 57.0933 87.7673 56.8C88.2473 56.5067 88.6273 56.1133 88.9073 55.62C89.1939 55.1267 89.3373 54.5833 89.3373 53.99C89.3373 53.3833 89.1939 52.8333 88.9073 52.34C88.6206 51.8467 88.2373 51.4567 87.7573 51.17C87.2773 50.8767 86.7506 50.73 86.1773 50.73C85.5973 50.73 85.0873 50.8767 84.6473 51.17C84.2073 51.4633 83.8639 51.8567 83.6173 52.35C83.3706 52.8433 83.2473 53.39 83.2473 53.99C83.2473 54.59 83.3706 55.1367 83.6173 55.63C83.8639 56.1233 84.2073 56.5167 84.6473 56.81C85.0873 57.0967 85.5973 57.24 86.1773 57.24ZM93.2918 49H95.3718V59H93.2918V49ZM94.3518 47.55C94.0318 47.55 93.7651 47.4467 93.5518 47.24C93.3385 47.0333 93.2318 46.7733 93.2318 46.46C93.2318 46.1533 93.3385 45.8967 93.5518 45.69C93.7651 45.4767 94.0285 45.37 94.3418 45.37C94.6485 45.37 94.9085 45.4767 95.1218 45.69C95.3351 45.8967 95.4418 46.1533 95.4418 46.46C95.4418 46.7733 95.3351 47.0333 95.1218 47.24C94.9151 47.4467 94.6585 47.55 94.3518 47.55ZM98.2035 59V44H100.284V59H98.2035ZM103.076 49H105.156V59H103.076V49ZM104.136 47.55C103.816 47.55 103.55 47.4467 103.336 47.24C103.123 47.0333 103.016 46.7733 103.016 46.46C103.016 46.1533 103.123 45.8967 103.336 45.69C103.55 45.4767 103.813 45.37 104.126 45.37C104.433 45.37 104.693 45.4767 104.906 45.69C105.12 45.8967 105.226 46.1533 105.226 46.46C105.226 46.7733 105.12 47.0333 104.906 47.24C104.7 47.4467 104.443 47.55 104.136 47.55ZM110.812 59.19C110.285 59.1567 109.772 59.05 109.272 58.87C108.772 58.69 108.332 58.4467 107.952 58.14C107.579 57.8267 107.299 57.46 107.112 57.04L108.882 56.28C108.969 56.46 109.119 56.6367 109.332 56.81C109.552 56.9833 109.809 57.1267 110.102 57.24C110.395 57.3467 110.702 57.4 111.022 57.4C111.335 57.4 111.625 57.3567 111.892 57.27C112.165 57.1767 112.389 57.0367 112.562 56.85C112.735 56.6633 112.822 56.44 112.822 56.18C112.822 55.8867 112.722 55.66 112.522 55.5C112.329 55.3333 112.085 55.2067 111.792 55.12C111.499 55.0333 111.205 54.95 110.912 54.87C110.259 54.7233 109.659 54.5233 109.112 54.27C108.572 54.01 108.142 53.68 107.822 53.28C107.502 52.8733 107.342 52.3767 107.342 51.79C107.342 51.15 107.515 50.5967 107.862 50.13C108.209 49.6567 108.662 49.2933 109.222 49.04C109.789 48.7867 110.392 48.66 111.032 48.66C111.832 48.66 112.565 48.83 113.232 49.17C113.899 49.51 114.409 49.9767 114.762 50.57L113.112 51.55C113.012 51.35 112.862 51.17 112.662 51.01C112.462 50.85 112.235 50.7233 111.982 50.63C111.729 50.53 111.465 50.4733 111.192 50.46C110.852 50.4467 110.535 50.4867 110.242 50.58C109.955 50.6667 109.725 50.8067 109.552 51C109.379 51.1933 109.292 51.44 109.292 51.74C109.292 52.0333 109.395 52.2533 109.602 52.4C109.809 52.54 110.069 52.6533 110.382 52.74C110.702 52.8267 111.029 52.9233 111.362 53.03C111.955 53.2167 112.512 53.4467 113.032 53.72C113.552 53.9867 113.972 54.3167 114.292 54.71C114.612 55.1033 114.765 55.5833 114.752 56.15C114.752 56.7767 114.562 57.3267 114.182 57.8C113.809 58.2733 113.322 58.6333 112.722 58.88C112.122 59.1267 111.485 59.23 110.812 59.19Z" fill="white"/>
<defs>
<filter id="filter0_dd_0_1" x="0" y="0" width="165" height="105" filterUnits="userSpaceOnUse" color-interpolation-filters="sRGB">
<feFlood flood-opacity="0" result="BackgroundImageFix"/>
<feColorMatrix in="SourceAlpha" type="matrix" values="0 0 0 0 0 0 0 0 0 0 0 0 0 0 0 0 0 0 127 0" result="hardAlpha"/>
<feOffset/>
<feGaussianBlur stdDeviation="2.5"/>
<feComposite in2="hardAlpha" operator="out"/>
<feColorMatrix type="matrix" values="0 0 0 0 0 0 0 0 0 0 0 0 0 0 0 0 0 0 0.1 0"/>
<feBlend mode="normal" in2="BackgroundImageFix" result="effect1_dropShadow_0_1"/>
<feColorMatrix in="SourceAlpha" type="matrix" values="0 0 0 0 0 0 0 0 0 0 0 0 0 0 0 0 0 0 127 0" result="hardAlpha"/>
<feOffset/>
<feGaussianBlur stdDeviation="2.5"/>
<feComposite in2="hardAlpha" operator="out"/>
<feColorMatrix type="matrix" values="0 0 0 0 0 0 0 0 0 0 0 0 0 0 0 0 0 0 0.1 0"/>
<feBlend mode="normal" in2="effect1_dropShadow_0_1" result="effect2_dropShadow_0_1"/>
<feBlend mode="normal" in="SourceGraphic" in2="effect2_dropShadow_0_1" result="shape"/>
</filter>
<linearGradient id="paint0_linear_0_1" x1="9" y1="103" x2="146" y2="29" gradientUnits="userSpaceOnUse">
<stop stop-color="#176E8C"/>
<stop offset="1" stop-color="#084F5E"/>
</linearGradient>
<linearGradient id="paint1_linear_0_1" x1="110" y1="78" x2="171" y2="98" gradientUnits="userSpaceOnUse">
<stop stop-color="#02966D"/>
<stop offset="1" stop-color="#02CD6B"/>
</linearGradient>
<linearGradient id="paint2_linear_0_1" x1="84" y1="5" x2="144" y2="39" gradientUnits="userSpaceOnUse">
<stop stop-color="#008844"/>
<stop offset="1" stop-color="#00D26A"/>
</linearGradient>
<linearGradient id="paint3_linear_0_1" x1="160" y1="39" x2="109" y2="72" gradientUnits="userSpaceOnUse">
<stop stop-color="#0C797B"/>
<stop offset="1" stop-color="#01D76A"/>
</linearGradient>
</defs>
</svg>
