<svg width="165" height="105" viewBox="0 0 165 105" fill="none" xmlns="http://www.w3.org/2000/svg">
<g filter="url(#filter0_dd_0_1)">
<rect x="5" y="5" width="155" height="95" rx="10" fill="white"/>
</g>
<path d="M51.0789 62.26C50.1322 62.26 49.2422 62.0733 48.4089 61.7C47.5756 61.32 46.8422 60.7967 46.2089 60.13C45.5756 59.4633 45.0789 58.6933 44.7189 57.82C44.3589 56.94 44.1789 56 44.1789 55C44.1789 54 44.3589 53.0633 44.7189 52.19C45.0789 51.31 45.5756 50.5367 46.2089 49.87C46.8422 49.2033 47.5756 48.6833 48.4089 48.31C49.2422 47.93 50.1322 47.74 51.0789 47.74C52.0322 47.74 52.9256 47.93 53.7589 48.31C54.5922 48.6833 55.3256 49.2033 55.9589 49.87C56.5922 50.5367 57.0856 51.31 57.4389 52.19C57.7989 53.0633 57.9789 54 57.9789 55C57.9789 56 57.7989 56.94 57.4389 57.82C57.0856 58.6933 56.5922 59.4633 55.9589 60.13C55.3256 60.7967 54.5922 61.32 53.7589 61.7C52.9256 62.0733 52.0322 62.26 51.0789 62.26ZM51.0789 60.18C51.7456 60.18 52.3689 60.0433 52.9489 59.77C53.5289 59.4967 54.0389 59.1233 54.4789 58.65C54.9256 58.17 55.2722 57.62 55.5189 57C55.7722 56.3733 55.8989 55.7067 55.8989 55C55.8989 54.2933 55.7722 53.6267 55.5189 53C55.2722 52.3733 54.9256 51.8233 54.4789 51.35C54.0389 50.87 53.5289 50.4967 52.9489 50.23C52.3689 49.9567 51.7456 49.82 51.0789 49.82C50.4122 49.82 49.7889 49.9567 49.2089 50.23C48.6289 50.5033 48.1156 50.88 47.6689 51.36C47.2289 51.8333 46.8822 52.3833 46.6289 53.01C46.3822 53.63 46.2589 54.2933 46.2589 55C46.2589 55.7133 46.3822 56.3833 46.6289 57.01C46.8822 57.63 47.2289 58.18 47.6689 58.66C48.1156 59.1333 48.6289 59.5067 49.2089 59.78C49.7889 60.0467 50.4122 60.18 51.0789 60.18ZM64.1156 62.26C63.1956 62.26 62.3556 62.0233 61.5956 61.55C60.8423 61.0767 60.239 60.4433 59.7856 59.65C59.339 58.85 59.1156 57.9667 59.1156 57C59.1156 56.2667 59.2456 55.5833 59.5056 54.95C59.7656 54.31 60.1223 53.75 60.5756 53.27C61.0356 52.7833 61.569 52.4033 62.1756 52.13C62.7823 51.8567 63.429 51.72 64.1156 51.72C65.0356 51.72 65.8723 51.9567 66.6256 52.43C67.3856 52.9033 67.989 53.54 68.4356 54.34C68.889 55.14 69.1156 56.0267 69.1156 57C69.1156 57.7267 68.9856 58.4067 68.7256 59.04C68.4656 59.6733 68.1056 60.2333 67.6456 60.72C67.1923 61.2 66.6623 61.5767 66.0556 61.85C65.4556 62.1233 64.809 62.26 64.1156 62.26ZM64.1156 60.18C64.669 60.18 65.1656 60.0333 65.6056 59.74C66.0456 59.4467 66.3923 59.06 66.6456 58.58C66.9056 58.0933 67.0356 57.5667 67.0356 57C67.0356 56.42 66.9023 55.8867 66.6356 55.4C66.3756 54.9133 66.0256 54.5267 65.5856 54.24C65.1456 53.9467 64.6556 53.8 64.1156 53.8C63.569 53.8 63.0723 53.9467 62.6256 54.24C62.1856 54.5333 61.8356 54.9233 61.5756 55.41C61.3223 55.8967 61.1956 56.4267 61.1956 57C61.1956 57.5933 61.329 58.13 61.5956 58.61C61.8623 59.09 62.2156 59.4733 62.6556 59.76C63.1023 60.04 63.589 60.18 64.1156 60.18ZM70.7313 62V52H72.8113V53.06C73.1579 52.6467 73.5846 52.32 74.0913 52.08C74.5979 51.84 75.1446 51.72 75.7313 51.72C76.1046 51.72 76.4746 51.77 76.8413 51.87L76.0113 53.97C75.7513 53.87 75.4913 53.82 75.2313 53.82C74.7913 53.82 74.3879 53.93 74.0213 54.15C73.6546 54.3633 73.3613 54.6533 73.1413 55.02C72.9213 55.3867 72.8113 55.7933 72.8113 56.24V62H70.7313ZM81.9281 62.26C81.0081 62.26 80.1681 62.0233 79.4081 61.55C78.6548 61.0767 78.0515 60.4433 77.5981 59.65C77.1515 58.85 76.9281 57.9667 76.9281 57C76.9281 56.2667 77.0581 55.5833 77.3181 54.95C77.5781 54.31 77.9348 53.75 78.3881 53.27C78.8481 52.7833 79.3815 52.4033 79.9881 52.13C80.5948 51.8567 81.2415 51.72 81.9281 51.72C82.6948 51.72 83.3981 51.88 84.0381 52.2C84.6781 52.5133 85.2248 52.95 85.6781 53.51C86.1315 54.0633 86.4648 54.7033 86.6781 55.43C86.8915 56.15 86.9548 56.9167 86.8681 57.73H79.1581C79.2448 58.19 79.4115 58.6067 79.6581 58.98C79.9115 59.3467 80.2315 59.6367 80.6181 59.85C81.0115 60.0633 81.4481 60.1733 81.9281 60.18C82.4348 60.18 82.8948 60.0533 83.3081 59.8C83.7281 59.5467 84.0715 59.1967 84.3381 58.75L86.4481 59.24C86.0481 60.1267 85.4448 60.8533 84.6381 61.42C83.8315 61.98 82.9281 62.26 81.9281 62.26ZM79.0881 56.14H84.7681C84.7015 55.66 84.5315 55.2267 84.2581 54.84C83.9915 54.4467 83.6548 54.1367 83.2481 53.91C82.8481 53.6767 82.4081 53.56 81.9281 53.56C81.4548 53.56 81.0148 53.6733 80.6081 53.9C80.2081 54.1267 79.8748 54.4367 79.6081 54.83C79.3481 55.2167 79.1748 55.6533 79.0881 56.14ZM96.2947 47H98.3747V62H96.2947V60.53C95.968 61.05 95.5414 61.47 95.0147 61.79C94.488 62.1033 93.8714 62.26 93.1647 62.26C92.438 62.26 91.758 62.1233 91.1247 61.85C90.4914 61.5767 89.9314 61.2 89.4447 60.72C88.9647 60.2333 88.588 59.6733 88.3147 59.04C88.0414 58.4067 87.9047 57.7267 87.9047 57C87.9047 56.2733 88.0414 55.5933 88.3147 54.96C88.588 54.32 88.9647 53.76 89.4447 53.28C89.9314 52.7933 90.4914 52.4133 91.1247 52.14C91.758 51.8667 92.438 51.73 93.1647 51.73C93.8714 51.73 94.488 51.89 95.0147 52.21C95.5414 52.5233 95.968 52.9367 96.2947 53.45V47ZM93.1847 60.25C93.7714 60.25 94.2847 60.1067 94.7247 59.82C95.1647 59.5267 95.5047 59.1333 95.7447 58.64C95.9914 58.1467 96.1147 57.6 96.1147 57C96.1147 56.3933 95.9914 55.8433 95.7447 55.35C95.498 54.8567 95.1547 54.4667 94.7147 54.18C94.2814 53.8867 93.7714 53.74 93.1847 53.74C92.6047 53.74 92.0747 53.8867 91.5947 54.18C91.1214 54.4733 90.7414 54.8667 90.4547 55.36C90.1747 55.8533 90.0347 56.4 90.0347 57C90.0347 57.6067 90.178 58.1567 90.4647 58.65C90.758 59.1367 91.1414 59.5267 91.6147 59.82C92.0947 60.1067 92.618 60.25 93.1847 60.25ZM105.034 62.26C104.114 62.26 103.274 62.0233 102.514 61.55C101.76 61.0767 101.157 60.4433 100.704 59.65C100.257 58.85 100.034 57.9667 100.034 57C100.034 56.2667 100.164 55.5833 100.424 54.95C100.684 54.31 101.04 53.75 101.494 53.27C101.954 52.7833 102.487 52.4033 103.094 52.13C103.7 51.8567 104.347 51.72 105.034 51.72C105.954 51.72 106.79 51.9567 107.544 52.43C108.304 52.9033 108.907 53.54 109.354 54.34C109.807 55.14 110.034 56.0267 110.034 57C110.034 57.7267 109.904 58.4067 109.644 59.04C109.384 59.6733 109.024 60.2333 108.564 60.72C108.11 61.2 107.58 61.5767 106.974 61.85C106.374 62.1233 105.727 62.26 105.034 62.26ZM105.034 60.18C105.587 60.18 106.084 60.0333 106.524 59.74C106.964 59.4467 107.31 59.06 107.564 58.58C107.824 58.0933 107.954 57.5667 107.954 57C107.954 56.42 107.82 55.8867 107.554 55.4C107.294 54.9133 106.944 54.5267 106.504 54.24C106.064 53.9467 105.574 53.8 105.034 53.8C104.487 53.8 103.99 53.9467 103.544 54.24C103.104 54.5333 102.754 54.9233 102.494 55.41C102.24 55.8967 102.114 56.4267 102.114 57C102.114 57.5933 102.247 58.13 102.514 58.61C102.78 59.09 103.134 59.4733 103.574 59.76C104.02 60.04 104.507 60.18 105.034 60.18ZM116.03 62.26C115.11 62.26 114.27 62.0233 113.51 61.55C112.756 61.0767 112.153 60.4433 111.7 59.65C111.253 58.85 111.03 57.9667 111.03 57C111.03 56.2667 111.16 55.5833 111.42 54.95C111.68 54.31 112.036 53.75 112.49 53.27C112.95 52.7833 113.483 52.4033 114.09 52.13C114.696 51.8567 115.343 51.72 116.03 51.72C116.95 51.72 117.786 51.9567 118.54 52.43C119.3 52.9033 119.903 53.54 120.35 54.34C120.803 55.14 121.03 56.0267 121.03 57C121.03 57.7267 120.9 58.4067 120.64 59.04C120.38 59.6733 120.02 60.2333 119.56 60.72C119.106 61.2 118.576 61.5767 117.97 61.85C117.37 62.1233 116.723 62.26 116.03 62.26ZM116.03 60.18C116.583 60.18 117.08 60.0333 117.52 59.74C117.96 59.4467 118.306 59.06 118.56 58.58C118.82 58.0933 118.95 57.5667 118.95 57C118.95 56.42 118.816 55.8867 118.55 55.4C118.29 54.9133 117.94 54.5267 117.5 54.24C117.06 53.9467 116.57 53.8 116.03 53.8C115.483 53.8 114.986 53.9467 114.54 54.24C114.1 54.5333 113.75 54.9233 113.49 55.41C113.236 55.8967 113.11 56.4267 113.11 57C113.11 57.5933 113.243 58.13 113.51 58.61C113.776 59.09 114.13 59.4733 114.57 59.76C115.016 60.04 115.503 60.18 116.03 60.18Z" fill="#FF0000"/>
<path d="M121 101C121 99.0302 120.612 97.0796 119.858 95.2597C119.104 93.4399 117.999 91.7863 116.607 90.3934C115.214 89.0005 113.56 87.8956 111.74 87.1418C109.92 86.388 107.97 86 106 86C104.03 86 102.08 86.388 100.26 87.1418C98.4399 87.8956 96.7863 89.0005 95.3934 90.3934C94.0005 91.7863 92.8956 93.4399 92.1418 95.2597C91.388 97.0796 91 99.0302 91 101L106 101H121Z" fill="#FF0000"/>
<path d="M160 92.5C160 86.5 160 86 160 77C153.821 70.8113 149.688 68 140.949 68C132.21 68 123.83 71.4768 117.651 77.6655C111.471 83.8542 108 92.2478 108 101L140.949 101L149.935 101L155.5 98.5L157 97.5L158 96L159 94.5L160 92.5Z" fill="#FF0000"/>
<path d="M6.55566 9.00003C4.55566 13.5 5 18.4436 5 24.5C9.1258 28.6258 13.2209 27 19.0557 27C24.8904 27 30.4862 24.6822 34.612 20.5564C38.7378 16.4306 41.0557 10.8348 41.0557 5.00004L19.0557 5.00003L13.0557 5.00004L9.05566 6.50003L6.55566 9.00003Z" fill="#FF0000"/>
<defs>
<filter id="filter0_dd_0_1" x="0" y="0" width="165" height="105" filterUnits="userSpaceOnUse" color-interpolation-filters="sRGB">
<feFlood flood-opacity="0" result="BackgroundImageFix"/>
<feColorMatrix in="SourceAlpha" type="matrix" values="0 0 0 0 0 0 0 0 0 0 0 0 0 0 0 0 0 0 127 0" result="hardAlpha"/>
<feOffset/>
<feGaussianBlur stdDeviation="2.5"/>
<feComposite in2="hardAlpha" operator="out"/>
<feColorMatrix type="matrix" values="0 0 0 0 0 0 0 0 0 0 0 0 0 0 0 0 0 0 0.1 0"/>
<feBlend mode="normal" in2="BackgroundImageFix" result="effect1_dropShadow_0_1"/>
<feColorMatrix in="SourceAlpha" type="matrix" values="0 0 0 0 0 0 0 0 0 0 0 0 0 0 0 0 0 0 127 0" result="hardAlpha"/>
<feOffset/>
<feGaussianBlur stdDeviation="2.5"/>
<feComposite in2="hardAlpha" operator="out"/>
<feColorMatrix type="matrix" values="0 0 0 0 0 0 0 0 0 0 0 0 0 0 0 0 0 0 0.1 0"/>
<feBlend mode="normal" in2="effect1_dropShadow_0_1" result="effect2_dropShadow_0_1"/>
<feBlend mode="normal" in="SourceGraphic" in2="effect2_dropShadow_0_1" result="shape"/>
</filter>
</defs>
</svg>
