<svg width="32" height="32" viewBox="0 0 32 32" fill="none" xmlns="http://www.w3.org/2000/svg">
<g clip-path="url(#clip0_30_205)">
<path fill-rule="evenodd" clip-rule="evenodd" d="M24.9429 11.7284C24.9429 13.4031 25.3854 14.39 26.3594 15.5275C27.0975 16.3655 27.3334 17.4411 27.3334 18.608C27.3334 19.7736 26.9505 20.8801 26.1831 21.7785C25.1787 22.8556 23.7621 23.5431 22.3163 23.6627C20.2213 23.8412 18.125 23.9916 16.0007 23.9916C13.8751 23.9916 11.7801 23.9017 9.68508 23.6627C8.23803 23.5431 6.82144 22.8556 5.81831 21.7785C5.05104 20.8801 4.66675 19.7736 4.66675 18.608C4.66675 17.4411 4.90395 16.3655 5.64073 15.5275C6.6452 14.39 7.05864 13.4031 7.05864 11.7284V11.1604C7.05864 8.91779 7.61785 7.45136 8.76941 6.01581C10.4815 3.92227 13.2259 2.66667 15.9411 2.66667H16.0603C18.8339 2.66667 21.667 3.98269 23.3501 6.16621C24.4419 7.57221 24.9429 8.97687 24.9429 11.1604V11.7284ZM12.0983 26.7477C12.0983 26.0764 12.7145 25.7688 13.2843 25.6372C13.9509 25.4963 18.0125 25.4963 18.679 25.6372C19.2489 25.7688 19.865 26.0764 19.865 26.7477C19.8318 27.3869 19.4569 27.9537 18.9387 28.3136C18.2669 28.8373 17.4785 29.1689 16.6542 29.2885C16.1983 29.3476 15.7505 29.3489 15.3105 29.2885C14.4849 29.1689 13.6965 28.8373 13.0259 28.3123C12.5065 27.9537 12.1314 27.3869 12.0983 26.7477Z" fill="#48484A"/>
<circle cx="8" cy="7" r="4" fill="#31F6A9"/>
</g>
<defs>
<clipPath id="clip0_30_205">
<rect width="32" height="32" fill="white"/>
</clipPath>
</defs>
</svg>
